<?xml version="1.0" standalone="no"?>
<!DOCTYPE svg PUBLIC "-//W3C//DTD SVG 20010904//EN"
 "http://www.w3.org/TR/2001/REC-SVG-20010904/DTD/svg10.dtd">
<svg version="1.0" xmlns="http://www.w3.org/2000/svg"
 width="120.000000pt" height="99.000000pt" viewBox="0 0 120.000000 99.000000"
 preserveAspectRatio="xMidYMid meet">

<g transform="translate(0.000000,99.000000) scale(0.100000,-0.100000)"
fill="#000000" stroke="none">
<path d="M86 963 c-15 -4 -17 -11 -12 -36 23 -110 56 -352 56 -407 0 -36 -11
-119 -25 -185 -13 -66 -25 -123 -25 -126 0 -4 11 -9 24 -11 22 -4 25 0 45 90
12 53 25 123 28 157 l6 62 96 29 96 30 2 -71 c2 -38 8 -121 14 -182 11 -108
12 -113 35 -113 12 0 25 3 27 8 2 4 -2 50 -9 102 -14 101 -17 221 -8 256 5 18
28 28 127 58 262 77 362 83 477 28 36 -17 66 -29 67 -28 2 1 -17 17 -42 35
-134 96 -229 97 -500 6 -44 -15 -88 -32 -97 -37 -23 -11 -23 -4 -1 78 15 57
16 66 3 74 -29 19 -37 9 -61 -86 l-25 -96 -88 -34 c-48 -19 -94 -34 -102 -34
-10 0 -14 13 -14 43 0 74 -56 398 -68 396 -4 -1 -15 -3 -26 -6z"/>
<path d="M479 934 c-11 -30 -12 -29 18 -38 18 -6 25 -2 35 19 10 22 9 28 -3
36 -24 15 -39 10 -50 -17z"/>
<path d="M872 628 c-30 -30 -3 -83 39 -76 29 4 43 29 35 61 -5 21 -12 27 -34
27 -15 0 -33 -5 -40 -12z"/>
<path d="M580 545 c152 -58 279 -95 327 -95 52 0 117 31 187 89 26 23 45 41
41 41 -3 0 -41 -17 -83 -37 -70 -35 -84 -38 -157 -37 -52 1 -129 12 -220 34
-194 45 -203 46 -95 5z"/>
<path d="M183 90 c2 -52 4 -55 27 -55 22 0 25 4 25 35 0 28 -4 36 -22 38 -12
2 -24 11 -27 20 -2 9 -4 -8 -3 -38z m45 -26 c-2 -11 -10 -19 -18 -19 -17 0
-21 24 -7 43 13 17 30 0 25 -24z"/>
<path d="M380 125 c0 -8 -6 -15 -14 -15 -22 0 -39 -28 -32 -55 5 -18 13 -25
31 -25 24 0 25 3 25 55 0 30 -2 55 -5 55 -3 0 -5 -7 -5 -15z m0 -50 c0 -15 -6
-25 -14 -25 -22 0 -30 19 -16 35 18 22 30 18 30 -10z"/>
<path d="M1122 90 c3 -48 6 -55 25 -58 29 -4 48 30 33 58 -6 11 -16 20 -22 20
-6 0 -17 8 -24 18 -12 15 -14 10 -12 -38z m46 -26 c-1 -9 -8 -19 -14 -21 -16
-5 -24 33 -11 46 14 14 30 -1 25 -25z"/>
<path d="M20 79 c0 -31 4 -48 10 -44 6 3 10 15 10 26 0 12 7 19 20 19 13 0 20
-7 20 -20 0 -11 5 -20 10 -20 6 0 10 20 10 45 0 25 -4 45 -10 45 -5 0 -10 -7
-10 -15 0 -8 -9 -15 -20 -15 -11 0 -20 7 -20 15 0 8 -4 15 -10 15 -5 0 -10
-23 -10 -51z"/>
<path d="M455 80 c0 -38 4 -50 15 -50 11 0 15 12 15 50 0 38 -4 50 -15 50 -11
0 -15 -12 -15 -50z"/>
<path d="M986 92 c0 -20 1 -43 2 -49 2 -15 52 -18 52 -3 0 6 -9 10 -20 10 -17
0 -20 7 -20 40 0 22 -3 40 -7 40 -5 0 -8 -17 -7 -38z"/>
<path d="M116 90 c4 -14 7 -37 8 -52 0 -16 3 -28 6 -28 9 0 41 92 35 99 -3 3
-8 -5 -12 -17 -7 -28 -17 -28 -32 1 -11 22 -11 22 -5 -3z"/>
<path d="M258 73 c-2 -19 0 -36 4 -39 4 -3 8 9 8 25 0 17 5 31 10 31 6 0 10 4
10 8 0 5 -6 9 -14 9 -9 0 -16 -14 -18 -34z"/>
<path d="M307 103 c-11 -10 -8 -63 3 -63 6 0 10 16 10 35 0 36 -2 40 -13 28z"/>
<path d="M513 103 c-15 -6 -18 -63 -3 -63 6 0 10 11 10 24 0 14 5 28 10 31 6
4 10 -7 10 -24 0 -37 17 -41 22 -6 4 31 23 29 23 -2 1 -12 4 -26 9 -30 4 -4 6
10 4 32 -3 38 -5 40 -38 41 -19 1 -41 0 -47 -3z"/>
<path d="M620 101 c0 -6 7 -8 15 -5 8 4 15 2 15 -4 0 -5 -9 -12 -21 -15 -32
-8 -21 -42 14 -43 26 -1 28 1 25 35 -2 29 -8 37 -25 39 -13 2 -23 -1 -23 -7z
m40 -40 c0 -5 -7 -11 -15 -15 -9 -3 -15 0 -15 9 0 8 7 15 15 15 8 0 15 -4 15
-9z"/>
<path d="M692 98 c-6 -6 -12 -20 -12 -30 0 -18 33 -42 44 -31 3 3 6 1 6 -5 0
-6 -10 -13 -22 -15 -21 -4 -20 -4 3 -6 30 -1 36 9 35 59 -1 27 -6 36 -21 38
-11 1 -26 -3 -33 -10z m38 -29 c0 -10 -7 -19 -15 -19 -15 0 -21 31 -9 43 11
10 24 -3 24 -24z"/>
<path d="M760 70 c0 -23 4 -39 8 -36 12 7 13 64 1 71 -5 4 -9 -12 -9 -35z"/>
<path d="M790 69 c0 -45 16 -44 22 1 4 35 22 28 30 -12 6 -31 6 -31 5 7 -2 36
-5 40 -29 43 -27 3 -28 1 -28 -39z"/>
<path d="M872 98 c-24 -24 -6 -73 24 -61 8 3 14 0 14 -5 0 -6 -10 -13 -22 -15
-20 -4 -19 -4 4 -6 30 -1 43 24 36 70 -3 27 -36 37 -56 17z m38 -23 c0 -16 -6
-25 -15 -25 -15 0 -21 31 -8 43 13 14 23 6 23 -18z"/>
<path d="M1073 103 c23 -6 22 -19 -3 -26 -21 -5 -27 -31 -10 -42 6 -3 19 -3
30 0 16 5 19 13 16 33 -2 15 -5 30 -5 35 -1 4 -11 6 -23 6 -17 -1 -19 -2 -5
-6z m17 -41 c0 -13 -12 -22 -22 -16 -10 6 -1 24 13 24 5 0 9 -4 9 -8z"/>
</g>
</svg>
