<?xml version="1.0" standalone="no"?>
<!DOCTYPE svg PUBLIC "-//W3C//DTD SVG 20010904//EN"
 "http://www.w3.org/TR/2001/REC-SVG-20010904/DTD/svg10.dtd">
<svg version="1.0" xmlns="http://www.w3.org/2000/svg"
 width="400.000000pt" height="400.000000pt" viewBox="0 0 400.000000 400.000000"
 preserveAspectRatio="xMidYMid meet">

<g transform="translate(0.000000,400.000000) scale(0.100000,-0.100000)"
fill="#000000" stroke="none">
<path d="M2080 3440 c30 -4 74 -13 98 -19 23 -7 48 -9 54 -5 6 4 8 3 5 -3 -4
-6 13 -16 41 -23 26 -6 56 -16 67 -21 11 -4 44 -18 73 -29 29 -11 74 -31 99
-45 26 -13 51 -21 57 -18 6 3 8 3 4 -2 -11 -11 169 -128 183 -119 8 5 9 3 5
-5 -9 -14 24 -42 39 -34 5 4 7 2 2 -2 -11 -13 110 -125 128 -119 8 4 15 1 15
-6 0 -6 -4 -8 -10 -5 -17 10 -11 -12 7 -26 9 -8 34 -39 57 -69 22 -30 48 -64
58 -74 10 -11 18 -24 18 -28 0 -5 9 -4 20 2 16 9 18 8 14 -5 -4 -8 -10 -15
-15 -15 -4 0 -1 -13 9 -29 9 -16 21 -27 26 -24 5 3 6 1 2 -5 -8 -13 28 -75 38
-65 4 4 4 0 1 -9 -4 -9 5 -39 19 -67 14 -28 26 -53 26 -56 0 -3 -135 -5 -301
-5 -263 0 -304 -2 -329 -17 -34 -19 -53 -57 -44 -85 3 -12 2 -18 -3 -15 -6 4
-25 -44 -43 -106 -18 -62 -42 -143 -55 -182 -12 -38 -40 -130 -61 -202 -21
-73 -41 -133 -45 -133 -3 0 -12 21 -19 47 -11 38 -15 43 -22 27 -7 -16 -8 -15
-4 5 6 29 -14 111 -27 111 -4 0 -5 5 -2 10 4 6 -5 45 -18 88 -13 42 -37 118
-51 167 -15 50 -32 100 -37 113 -5 13 -9 32 -9 42 0 11 -5 20 -11 20 -5 0 -7
4 -4 10 6 9 -21 70 -31 70 -3 0 -3 -10 0 -22 5 -20 5 -20 -6 2 -29 59 -93 68
-137 21 -29 -31 -67 -143 -55 -162 4 -7 3 -9 -3 -6 -10 6 -121 -346 -156 -495
-6 -27 -17 -48 -24 -48 -7 0 -13 3 -14 8 -3 28 -14 71 -44 167 -18 61 -43 143
-55 182 -14 45 -26 70 -33 66 -6 -4 -7 -1 -2 7 4 6 3 29 -4 49 -6 20 -22 75
-36 123 -20 67 -33 93 -56 112 l-31 26 -244 0 c-293 0 -291 0 -335 -96 -16
-35 -30 -72 -32 -81 -2 -10 -8 -27 -13 -38 -6 -11 -19 -54 -30 -95 -23 -94
-27 -431 -6 -520 29 -119 72 -241 82 -235 3 2 7 -5 7 -16 2 -28 68 -154 81
-154 6 0 14 -4 19 -9 5 -5 3 -6 -4 -2 -20 11 -15 -2 14 -42 48 -65 87 -107 96
-104 5 1 6 -2 3 -7 -3 -5 17 -30 45 -56 41 -38 53 -45 61 -34 8 11 9 10 4 -4
-4 -12 5 -27 27 -47 31 -29 54 -40 42 -20 -3 6 -1 10 5 10 7 0 10 -7 7 -14 -6
-15 59 -64 76 -58 4 1 7 -2 7 -8 0 -16 200 -107 275 -125 39 -10 77 -21 86
-25 30 -15 152 -25 304 -25 151 0 246 16 315 52 14 7 30 13 36 13 16 0 162 81
229 127 92 64 139 108 130 123 -6 9 -4 11 5 5 16 -10 71 50 64 70 -3 7 -1 16
5 20 7 4 9 -1 5 -12 -9 -28 63 56 99 115 65 109 89 158 118 250 17 51 29 95
26 98 -2 2 -22 -31 -43 -73 -21 -43 -44 -82 -50 -88 -5 -5 -23 -28 -39 -50
-15 -22 -46 -59 -68 -82 -25 -26 -36 -46 -32 -54 5 -8 4 -10 -3 -5 -6 4 -44
-19 -85 -52 -41 -32 -90 -69 -110 -81 -20 -12 -37 -27 -37 -32 0 -5 -8 -9 -17
-9 -9 0 -38 -10 -65 -22 -34 -15 -44 -24 -36 -30 9 -6 6 -7 -8 -3 -11 3 -50
-3 -85 -14 -35 -10 -75 -21 -89 -24 -14 -3 -34 -7 -45 -10 -129 -31 -352 -31
-483 -1 -35 8 -69 11 -74 8 -6 -4 -8 -2 -5 3 4 6 -5 14 -21 18 -15 3 -49 17
-75 31 -27 13 -54 21 -59 17 -6 -3 -8 -2 -5 4 3 5 -13 19 -36 30 -23 11 -64
37 -90 57 -42 32 -51 35 -65 24 -15 -11 -15 -11 -5 2 9 12 -4 31 -72 102 -46
48 -85 84 -88 80 -2 -4 -2 -2 -1 5 2 7 -12 35 -31 64 -19 28 -35 56 -36 63 0
6 -5 2 -10 -9 -8 -18 -9 -17 -5 4 3 14 -1 36 -9 50 -25 45 -66 173 -81 251
-28 148 -11 379 38 515 l15 40 145 3 145 3 11 -38 c7 -21 21 -67 31 -103 59
-196 74 -240 82 -246 5 -3 7 -10 4 -15 -4 -5 -1 -9 4 -9 6 0 11 -8 11 -17 0
-16 -2 -16 -11 -3 -9 12 -10 11 -4 -5 4 -11 13 -41 21 -67 8 -27 19 -48 25
-48 6 0 8 -4 4 -9 -6 -11 25 -131 35 -131 3 0 7 -14 8 -31 1 -17 9 -46 17 -65
8 -19 12 -34 10 -34 -11 0 58 -168 76 -182 31 -26 95 -24 102 2 3 11 11 20 19
20 10 0 10 -2 -2 -10 -8 -5 -12 -11 -10 -14 3 -2 15 4 26 13 13 11 32 52 49
107 14 49 37 123 50 164 13 41 26 91 27 110 2 19 9 41 15 48 7 7 16 31 19 53
4 22 11 42 15 45 5 3 9 15 9 27 0 12 9 46 21 76 11 30 18 60 15 67 -3 8 1 14
8 14 8 0 18 -17 24 -37 6 -21 27 -92 47 -158 20 -66 48 -158 61 -205 13 -47
28 -94 33 -105 5 -11 19 -55 32 -99 15 -49 34 -90 51 -109 26 -27 33 -29 74
-24 27 3 54 13 65 24 22 22 69 148 72 193 1 17 5 30 8 30 3 0 16 37 28 83 13
45 31 107 41 137 17 51 37 125 44 160 2 8 9 29 15 45 27 64 42 129 36 154 -4
19 -3 22 4 11 9 -13 10 -13 14 0 2 8 9 31 15 50 6 19 13 47 16 62 2 14 9 36
16 47 10 21 17 21 326 21 352 0 358 1 389 66 17 36 17 39 -5 93 -13 31 -39 88
-58 126 -30 60 -36 67 -44 50 -7 -17 -8 -17 -4 4 6 28 -50 128 -114 206 -109
132 -113 136 -123 123 -6 -9 -7 -8 -3 4 8 25 -136 153 -172 153 -19 0 -27 5
-26 17 2 26 -130 111 -159 103 -15 -4 -18 -3 -9 3 18 13 -2 25 -140 86 -75 33
-116 48 -188 66 -96 25 -267 50 -322 49 -42 -2 -41 -2 12 -9z m495 -120 c19
-8 19 -9 -2 -9 -12 -1 -25 4 -28 9 -7 12 2 12 30 0z m65 -40 c-8 -5 -11 -10
-5 -10 5 0 4 -5 -2 -11 -6 -6 -17 -8 -24 -4 -9 6 -7 11 6 22 11 7 24 13 29 13
6 0 4 -5 -4 -10z m310 -260 c0 -5 -4 -10 -10 -10 -5 0 -10 5 -10 10 0 6 5 10
10 10 6 0 10 -4 10 -10z m50 -80 c9 -16 8 -18 -5 -14 -8 4 -15 12 -15 20 0 20
7 17 20 -6z m-1500 -510 c16 0 17 -26 1 -27 -11 -1 -16 8 -17 30 -1 18 1 24 3
15 2 -10 8 -18 13 -18z m453 5 c-3 -9 -8 -14 -10 -11 -3 3 -2 9 2 15 9 16 15
13 8 -4z m154 -67 c-3 -8 -6 -5 -6 6 -1 11 2 17 5 13 3 -3 4 -12 1 -19z m-567
-43 c0 -5 -5 -3 -10 5 -5 8 -10 20 -10 25 0 6 5 3 10 -5 5 -8 10 -19 10 -25z
m-520 -14 c0 -6 -5 -13 -10 -16 -6 -3 -7 -18 -4 -33 4 -15 4 -24 0 -21 -10 10
-25 67 -18 73 9 9 32 7 32 -3z m93 2 c-7 -2 -21 -2 -30 0 -10 3 -4 5 12 5 17
0 24 -2 18 -5z m1597 -13 c0 -5 -4 -10 -10 -10 -5 0 -10 5 -10 10 0 6 5 10 10
10 6 0 10 -4 10 -10z m-806 -35 c-4 -8 -8 -15 -10 -15 -2 0 -4 7 -4 15 0 8 4
15 10 15 5 0 7 -7 4 -15z m303 -147 c-3 -8 -6 -5 -6 6 -1 11 2 17 5 13 3 -3 4
-12 1 -19z m260 0 c-3 -8 -6 -5 -6 6 -1 11 2 17 5 13 3 -3 4 -12 1 -19z
m-1496 -29 c-5 -13 -10 -19 -10 -12 -1 15 10 45 15 40 3 -2 0 -15 -5 -28z m-4
-91 c-3 -8 -6 -5 -6 6 -1 11 2 17 5 13 3 -3 4 -12 1 -19z m1287 -13 c-4 -8 -8
-15 -10 -15 -2 0 -4 7 -4 15 0 8 4 15 10 15 5 0 7 -7 4 -15z m177 -16 c-5 -13
-10 -19 -10 -12 -1 15 10 45 15 40 3 -2 0 -15 -5 -28z m-784 -46 c-3 -10 -5
-4 -5 12 0 17 2 24 5 18 2 -7 2 -21 0 -30z m170 -30 c-3 -10 -5 -2 -5 17 0 19
2 27 5 18 2 -10 2 -26 0 -35z m-26 -4 c-5 -13 -10 -19 -10 -12 -1 15 10 45 15
40 3 -2 0 -15 -5 -28z m-994 -161 c-3 -7 -5 -2 -5 12 0 14 2 19 5 13 2 -7 2
-19 0 -25z m763 -83 c0 -5 -5 -3 -10 5 -5 8 -10 20 -10 25 0 6 5 3 10 -5 5 -8
10 -19 10 -25z m-573 -57 c-3 -8 -6 -5 -6 6 -1 11 2 17 5 13 3 -3 4 -12 1 -19z
m-118 -103 c0 -5 -4 -3 -9 5 -5 8 -9 22 -9 30 0 16 17 -16 18 -35z m1585 -40
c3 -8 1 -15 -4 -15 -6 0 -10 7 -10 15 0 8 2 15 4 15 2 0 6 -7 10 -15z m-784
-122 c7 -9 7 -13 1 -13 -6 0 -18 15 -26 33 -13 27 -14 29 -1 12 9 -11 20 -26
26 -32z m137 25 c-3 -8 -6 -5 -6 6 -1 11 2 17 5 13 3 -3 4 -12 1 -19z m1143
-43 c0 -1 -10 -10 -22 -21 -17 -14 -20 -15 -9 -2 7 9 10 22 6 27 -3 7 0 8 9 5
9 -3 16 -7 16 -9z m-160 -135 c0 -5 -5 -10 -11 -10 -5 0 -7 5 -4 10 3 6 8 10
11 10 2 0 4 -4 4 -10z m-90 -100 c-13 -9 -13 -11 0 -20 9 -6 10 -10 3 -10 -15
0 -26 17 -18 30 3 6 12 10 18 10 7 0 6 -4 -3 -10z m-70 -10 c-8 -5 -19 -10
-25 -10 -5 0 -3 5 5 10 8 5 20 10 25 10 6 0 3 -5 -5 -10z m-73 -52 c-3 -8 -6
-5 -6 6 -1 11 2 17 5 13 3 -3 4 -12 1 -19z m-1037 -32 c0 -11 -19 -15 -25 -6
-3 5 1 10 9 10 9 0 16 -2 16 -4z m-170 -40 c-7 -7 -13 -7 -20 0 -6 6 -3 10 10
10 13 0 16 -4 10 -10z m953 -13 c-7 -2 -19 -2 -25 0 -7 3 -2 5 12 5 14 0 19
-2 13 -5z m287 -7 c0 -2 -7 -9 -15 -16 -13 -11 -14 -10 -9 4 5 14 24 23 24 12z
m-557 -23 c-7 -2 -19 -2 -25 0 -7 3 -2 5 12 5 14 0 19 -2 13 -5z m-523 -33
c-8 -5 -19 -10 -25 -10 -5 0 -3 5 5 10 8 5 20 10 25 10 6 0 3 -5 -5 -10z m-4
-32 c-10 -6 -22 -6 -26 -2 -5 5 3 10 18 11 22 1 24 0 8 -9z m927 -15 c-7 -2
-21 -2 -30 0 -10 3 -4 5 12 5 17 0 24 -2 18 -5z m-50 -20 c-13 -2 -23 -8 -23
-13 0 -4 -20 -8 -45 -8 -25 1 -43 3 -41 5 5 5 88 21 111 21 16 -1 16 -1 -2 -5z
m-350 -80 c-13 -2 -35 -2 -50 0 -16 2 -5 4 22 4 28 0 40 -2 28 -4z"/>
<path d="M1215 3272 c-152 -81 -181 -102 -140 -102 8 0 15 -4 15 -10 0 -5 -4
-10 -9 -10 -6 0 -13 5 -16 10 -10 16 -19 12 -69 -26 -26 -20 -43 -40 -40 -46
4 -6 2 -8 -4 -4 -6 3 -30 -11 -54 -32 -44 -38 -109 -102 -104 -102 2 0 -19
-24 -45 -52 -44 -47 -63 -78 -41 -64 4 2 8 -4 8 -15 0 -18 -2 -18 -12 -5 -10
14 -15 10 -39 -24 -15 -22 -25 -43 -22 -47 4 -3 9 2 13 11 3 9 11 16 17 16 5
0 2 -9 -8 -20 -10 -11 -22 -17 -26 -14 -13 8 -47 -55 -43 -79 2 -12 2 -16 -2
-9 -8 17 -24 5 -17 -13 3 -8 0 -15 -6 -15 -9 0 -57 -90 -65 -125 -2 -5 -6 -17
-9 -25 -25 -60 -58 -179 -60 -210 -1 -21 -4 -37 -8 -34 -11 7 -33 -186 -34
-296 0 -58 4 -136 8 -173 7 -56 11 -66 22 -57 12 10 12 6 3 -18 -10 -25 -8
-49 10 -128 12 -54 26 -100 30 -103 4 -4 9 -17 11 -31 1 -14 11 -36 21 -50 9
-14 15 -30 13 -36 -6 -18 16 -64 29 -62 8 2 13 -9 15 -27 1 -33 7 -45 71 -152
43 -71 92 -129 62 -73 -12 22 -11 24 2 13 8 -7 18 -9 23 -5 4 4 2 -3 -4 -15
-13 -25 2 -69 20 -58 5 4 8 2 7 -3 -5 -16 83 -113 95 -105 5 3 7 2 4 -4 -6 -9
60 -82 76 -83 4 0 6 -2 5 -4 -2 -2 5 -13 14 -23 12 -13 27 -18 45 -16 21 3 32
-2 42 -19 14 -23 14 -23 -7 -4 -11 10 -26 16 -33 14 -13 -4 72 -74 149 -122
60 -37 257 -136 272 -136 6 0 26 -7 43 -14 68 -32 161 -57 186 -51 21 4 23 3
11 -5 -11 -9 -6 -10 23 -5 21 3 46 8 55 11 9 2 4 -2 -13 -10 -30 -14 -29 -14
40 -22 125 -16 430 -10 525 10 154 31 298 81 415 143 11 6 40 21 65 34 52 26
72 44 62 53 -3 4 0 5 8 2 8 -3 26 3 40 14 14 11 18 18 9 14 -10 -3 -20 -1 -23
4 -3 5 8 8 25 6 25 -3 42 8 117 75 133 120 185 177 177 192 -5 7 -4 10 2 6 13
-8 45 26 41 44 -2 7 -9 20 -16 28 -12 12 -15 12 -23 0 -5 -8 -9 -9 -9 -3 0 6
3 14 7 18 11 11 10 47 -1 43 -6 -2 -10 -11 -10 -20 1 -9 -2 -15 -6 -12 -4 2
-16 -5 -26 -16 -16 -18 -148 -131 -192 -164 -7 -5 -22 -18 -33 -27 -10 -10
-19 -15 -19 -12 0 4 -15 -5 -34 -20 -19 -14 -73 -45 -120 -69 -47 -24 -83 -46
-80 -49 3 -3 -1 -5 -8 -5 -23 2 -98 -23 -98 -33 0 -6 -3 -9 -7 -8 -5 1 -27 -2
-51 -6 -33 -6 -42 -12 -37 -23 4 -13 3 -13 -9 -4 -10 8 -26 9 -57 1 -24 -5
-71 -16 -104 -24 -165 -37 -500 -9 -695 59 -58 20 -115 38 -127 38 -11 1 -19
6 -15 11 3 5 -3 6 -14 2 -10 -4 -15 -4 -12 0 4 3 -16 18 -45 33 -55 28 -157
95 -219 143 -20 15 -42 27 -50 25 -7 -2 -10 -2 -5 1 4 2 -35 46 -88 98 -52 52
-120 131 -151 174 -32 44 -61 77 -65 74 -5 -3 -6 2 -3 11 4 9 0 23 -9 33 -8 9
-18 27 -22 40 -4 13 -9 21 -12 18 -4 -3 -14 16 -23 42 -41 110 -63 161 -69
158 -3 -2 -7 6 -7 17 -1 12 -13 65 -28 117 -14 52 -29 136 -32 187 -4 51 -10
91 -14 88 -3 -2 -5 8 -3 23 1 15 5 72 7 127 3 55 10 131 16 170 12 79 60 254
91 332 12 29 18 57 13 64 -4 8 -3 9 4 5 7 -4 17 6 25 27 8 18 26 52 41 76 15
23 24 47 20 54 -4 7 -4 9 1 5 4 -4 30 25 57 65 28 39 59 82 70 94 12 12 17 27
13 34 -5 7 -4 10 1 6 5 -3 51 37 102 88 52 52 96 94 98 94 3 0 26 16 52 36 26
20 69 52 97 71 69 47 46 42 -60 -14z m-75 -71 c-8 -5 -26 -12 -40 -15 l-25 -7
25 15 c14 9 32 15 40 15 13 0 13 -1 0 -8z m-86 -66 c-4 -8 -10 -15 -15 -15 -4
0 -6 7 -3 15 4 8 10 15 15 15 4 0 6 -7 3 -15z m-65 -54 c-15 -5 -22 6 -14 19
6 9 10 9 16 -1 5 -8 4 -15 -2 -18z m-69 -46 c0 -8 -7 -15 -16 -15 -14 0 -14 3
-4 15 7 8 14 15 16 15 2 0 4 -7 4 -15z m-106 -185 c-6 -6 -10 -3 -10 10 0 13
4 16 10 10 7 -7 7 -13 0 -20z m-117 -102 c-3 -8 -6 -5 -6 6 -1 11 2 17 5 13 3
-3 4 -12 1 -19z m-53 -60 c-10 -16 -22 -7 -17 13 4 15 8 17 14 8 4 -7 5 -17 3
-21z m-86 -153 c-3 -3 -9 2 -12 12 -6 14 -5 15 5 6 7 -7 10 -15 7 -18z m56
-107 c-4 -6 -10 -5 -15 3 -14 22 -10 33 6 19 8 -7 12 -17 9 -22z m-47 -255
c-3 -10 -5 -4 -5 12 0 17 2 24 5 18 2 -7 2 -21 0 -30z m-130 -5 c-3 -7 -5 -2
-5 12 0 14 2 19 5 13 2 -7 2 -19 0 -25z m142 -410 c1 -10 -3 -18 -7 -18 -4 0
-8 17 -9 38 0 28 1 32 7 17 5 -11 9 -28 9 -37z m8 -115 c-3 -10 -5 -4 -5 12 0
17 2 24 5 18 2 -7 2 -21 0 -30z m0 -70 c-3 -10 -5 -4 -5 12 0 17 2 24 5 18 2
-7 2 -21 0 -30z m153 -299 c0 -8 -4 -12 -10 -9 -5 3 -10 10 -10 16 0 5 5 9 10
9 6 0 10 -7 10 -16z m27 -56 c-3 -8 -6 -5 -6 6 -1 11 2 17 5 13 3 -3 4 -12 1
-19z m-148 -63 c12 -25 21 -48 21 -52 -1 -9 -49 78 -50 90 -1 17 9 4 29 -38z
m241 -59 c0 -3 -4 -8 -10 -11 -5 -3 -10 -1 -10 4 0 6 5 11 10 11 6 0 10 -2 10
-4z m24 -39 c-1 -9 7 -19 17 -22 17 -6 28 -25 14 -25 -14 0 -43 35 -38 46 3 8
1 14 -5 14 -6 0 -12 -6 -15 -12 -2 -7 -8 -9 -13 -5 -10 9 16 28 31 23 6 -2 9
-10 9 -19z m10 -266 c-5 -6 -34 20 -34 30 0 5 8 1 18 -8 10 -10 17 -20 16 -22z
m2100 -37 c7 -19 0 -34 -17 -34 -7 0 -6 4 3 11 11 8 12 12 3 16 -15 5 -17 23
-4 23 5 0 12 -7 15 -16z m-40 -54 c2 -3 -13 -5 -34 -5 -21 0 -37 3 -34 6 4 8
60 6 68 -1z m-44 -44 c-7 -7 -13 -7 -20 0 -6 6 -3 10 10 10 13 0 16 -4 10 -10z
m-1790 -36 c0 -5 -2 -10 -4 -10 -3 0 -8 5 -11 10 -3 6 -1 10 4 10 6 0 11 -4
11 -10z m445 -40 c-3 -5 -16 -10 -28 -9 -20 1 -20 2 3 9 14 4 26 8 28 9 2 1 0
-3 -3 -9z m950 0 c-27 -12 -43 -12 -25 0 8 5 22 9 30 9 10 0 8 -3 -5 -9z m78
3 c-7 -2 -21 -2 -30 0 -10 3 -4 5 12 5 17 0 24 -2 18 -5z m-986 -9 c-3 -3 -12
-4 -19 -1 -8 3 -5 6 6 6 11 1 17 -2 13 -5z m-386 -22 c-7 -2 -18 1 -23 6 -8 8
-4 9 13 5 13 -4 18 -8 10 -11z m1528 5 c-2 -1 -13 -9 -24 -17 -19 -14 -19 -14
-6 3 7 9 18 17 24 17 6 0 8 -1 6 -3z m-436 -34 c-7 -2 -19 -2 -25 0 -7 3 -2 5
12 5 14 0 19 -2 13 -5z m354 -9 c-3 -3 -12 -4 -19 -1 -8 3 -5 6 6 6 11 1 17
-2 13 -5z m-409 -11 c-10 -2 -28 -2 -40 0 -13 2 -5 4 17 4 22 1 32 -1 23 -4z
m252 -27 c0 -3 -4 -8 -10 -11 -5 -3 -10 -1 -10 4 0 6 5 11 10 11 6 0 10 -2 10
-4z m75 -6 c-11 -5 -27 -9 -35 -9 -9 0 -8 4 5 9 11 5 27 9 35 9 9 0 8 -4 -5
-9z m-552 -97 c-7 -2 -19 -2 -25 0 -7 3 -2 5 12 5 14 0 19 -2 13 -5z m200 0
c-7 -2 -19 -2 -25 0 -7 3 -2 5 12 5 14 0 19 -2 13 -5z m-236 -20 c-20 -2 -52
-2 -70 0 -17 2 0 4 38 4 39 0 53 -2 32 -4z m116 0 c-7 -2 -19 -2 -25 0 -7 3
-2 5 12 5 14 0 19 -2 13 -5z"/>
<path d="M2890 3140 c0 -5 7 -10 16 -10 8 0 12 5 9 10 -3 6 -10 10 -16 10 -5
0 -9 -4 -9 -10z"/>
<path d="M3480 1575 c0 -9 -12 -43 -27 -78 -16 -34 -28 -79 -28 -99 1 -20 -3
-34 -8 -31 -4 2 -5 14 -1 26 10 34 -1 18 -41 -58 -21 -38 -51 -89 -67 -113
-16 -23 -26 -47 -22 -54 4 -6 3 -8 -3 -5 -10 6 -17 0 -70 -68 -28 -36 -32 -50
-24 -98 0 -5 6 -5 11 -2 6 4 7 11 4 17 -5 7 -2 8 6 3 9 -6 12 -4 8 7 -4 8 -1
15 6 15 6 0 12 -8 12 -18 0 -10 -5 -17 -11 -16 -5 1 -10 -11 -11 -26 l-1 -29
23 29 c12 15 42 62 66 103 23 41 45 77 48 80 8 6 32 66 32 77 0 4 6 15 13 24
18 19 24 60 10 66 -6 2 -17 -13 -24 -33 -7 -19 -15 -33 -18 -31 -7 8 31 80 46
85 8 3 11 0 7 -7 -4 -6 -3 -11 2 -11 13 0 32 72 26 100 -4 18 -3 21 4 12 7
-10 11 -4 17 25 5 21 9 43 11 48 11 42 15 75 10 75 -3 0 -6 -7 -6 -15z m-130
-355 c6 -11 8 -20 6 -20 -3 0 -10 9 -16 20 -6 11 -8 20 -6 20 3 0 10 -9 16
-20z m-29 -23 c-10 -9 -11 -8 -5 6 3 10 9 15 12 12 3 -3 0 -11 -7 -18z m-47
-123 c3 -9 3 -22 -1 -29 -7 -11 -11 -11 -27 0 -15 12 -16 16 -5 29 18 20 25
20 33 0z"/>
<path d="M3250 1060 c0 -5 5 -10 10 -10 6 0 10 5 10 10 0 6 -4 10 -10 10 -5 0
-10 -4 -10 -10z"/>
</g>
</svg>
