<svg xmlns="http://www.w3.org/2000/svg" width="682.667" height="682.667" preserveAspectRatio="xMidYMid meet" version="1.0" viewBox="0 0 512 512"><g fill="#000" stroke="none"><path d="M1960 4701 c-102 -36 -180 -148 -180 -258 0 -37 41 -7 -483 -347 -183 -119 -199 -127 -215 -113 -38 34 -106 57 -173 57 -122 0 -220 -75 -255 -196 -21 -73 -12 -138 30 -207 l33 -55 -128 -187 -129 -188 -102 -1 c-83 -1 -112 -5 -150 -23 -108 -49 -193 -169 -205 -286 -4 -43 -1 -57 17 -79 45 -58 130 -21 130 56 0 17 9 49 19 71 72 157 299 153 366 -7 60 -146 -81 -309 -233 -269 -47 13 -85 2 -101 -28 -28 -52 3 -106 66 -116 21 -3 44 -9 52 -13 7 -4 40 -82 71 -174 l58 -166 -20 -19 c-39 -34 -68 -112 -68 -184 0 -151 111 -262 265 -263 77 -1 134 22 190 74 l30 28 191 -35 192 -36 5 -48 c3 -27 14 -66 24 -86 26 -55 94 -120 142 -134 40 -12 42 -14 62 -83 31 -107 76 -139 134 -94 25 20 27 25 21 72 -3 28 -8 62 -11 76 -5 21 1 29 40 52 50 30 99 99 116 163 14 50 6 129 -16 176 l-17 36 123 164 c68 90 129 170 134 177 9 11 21 11 71 1 l59 -12 37 -189 37 -189 -45 -41 c-145 -134 -148 -362 -6 -505 l31 -31 -100 -163 c-56 -90 -104 -168 -108 -172 -4 -4 -27 1 -52 12 -28 13 -66 21 -105 21 l-61 0 -17 59 c-9 32 -24 65 -32 72 -26 22 -84 16 -105 -10 -24 -29 -24 -48 2 -133 18 -63 19 -72 5 -87 -60 -66 -74 -201 -30 -289 47 -94 131 -146 239 -146 76 0 135 23 188 73 61 56 92 158 76 247 l-10 52 123 201 123 201 46 -6 c102 -13 245 51 308 139 l32 43 186 -41 186 -40 13 -64 c32 -154 141 -240 291 -228 174 14 291 198 227 357 l-16 40 83 88 84 87 62 -3 c166 -10 293 107 293 269 0 56 3 69 18 73 9 2 63 15 120 27 l102 23 31 -37 c49 -60 120 -92 204 -91 108 1 192 52 239 146 49 98 29 227 -46 305 l-30 31 16 103 c9 57 17 103 19 104 1 1 34 9 72 19 274 65 367 402 163 592 -76 71 -125 89 -238 88 -52 -1 -103 -3 -112 -5 -13 -3 -42 36 -116 154 l-99 158 24 46 c50 99 21 237 -64 314 -73 66 -125 76 -281 57 -17 -2 -72 38 -216 157 l-193 160 -5 81 c-3 64 -10 90 -31 127 -94 160 -308 183 -431 46 l-46 -51 -99 7 c-98 7 -100 7 -125 -18 -30 -30 -33 -66 -8 -97 14 -18 34 -24 102 -31 105 -11 110 -13 110 -39 0 -11 7 -37 15 -57 18 -43 19 -42 -89 -157 l-74 -79 -38 19 c-30 14 -58 19 -119 18 -44 -1 -90 -4 -101 -5 -17 -3 -56 33 -182 171 -88 96 -159 176 -158 177 1 1 57 -2 124 -8 145 -13 169 -9 186 33 18 41 4 83 -32 96 -15 6 -92 16 -172 22 -234 17 -225 15 -245 60 -56 124 -205 187 -335 141z m503 -602 l185 -202 -19 -41 c-10 -23 -19 -48 -19 -56 0 -11 -47 -28 -180 -64 l-181 -48 -19 25 c-32 41 -112 86 -184 104 -118 29 -235 -7 -327 -100 l-50 -50 -245 59 -245 58 3 30 c3 28 30 48 330 243 l328 213 47 -34 c59 -41 102 -56 163 -56 70 0 136 27 183 75 23 23 43 43 44 43 1 1 85 -89 186 -199z m1347 -129 c99 -83 180 -152 180 -154 0 -2 -7 -21 -16 -42 -20 -47 -22 -135 -5 -187 8 -22 9 -43 5 -47 -5 -5 -66 -41 -137 -80 l-127 -71 -64 25 c-72 29 -131 32 -191 11 -22 -8 -44 -15 -49 -15 -4 0 -68 59 -141 131 l-133 130 9 37 c5 22 4 60 -2 95 l-10 58 79 87 c117 128 113 125 159 113 79 -22 171 -7 232 39 14 10 27 20 29 20 2 0 84 -68 182 -150z m-1791 -300 c56 -16 100 -52 126 -104 68 -137 -25 -287 -177 -286 -129 1 -225 130 -189 252 16 52 75 115 126 133 48 17 70 18 114 5z m-628 -90 l227 -54 4 -66 c4 -57 27 -122 65 -191 2 -3 -84 -87 -190 -186 l-194 -181 -64 21 c-35 11 -66 22 -68 23 -2 2 -30 135 -61 296 l-58 293 44 44 c24 24 44 48 44 54 0 5 6 7 13 5 6 -3 114 -29 238 -58z m1276 6 c72 -98 219 -130 332 -72 l54 28 122 -122 123 -123 -15 -44 c-22 -65 -13 -159 21 -217 l26 -45 -102 -176 c-98 -167 -104 -175 -128 -168 -32 10 -146 9 -186 -1 -31 -8 -35 -5 -337 320 l-304 328 20 46 c15 33 21 67 21 128 l1 82 35 10 c19 5 82 22 140 38 58 17 114 30 125 31 13 0 32 -16 52 -43z m-1763 -84 c2 -4 31 -141 62 -304 l58 -295 -38 -33 c-87 -77 -115 -208 -68 -314 12 -27 22 -50 22 -51 0 -9 -243 -270 -251 -269 -5 1 -31 2 -58 3 l-48 1 -52 147 c-28 82 -47 149 -42 151 33 11 120 85 148 126 87 128 81 308 -16 418 -17 20 -31 39 -31 43 0 6 157 240 228 338 24 33 41 47 57 47 13 0 26 -4 29 -8z m3271 -93 c37 -9 61 -9 99 0 27 6 50 10 51 9 1 -2 46 -72 98 -157 l96 -154 -26 -31 c-39 -46 -64 -113 -70 -187 -12 -138 59 -267 186 -339 12 -6 12 -22 1 -103 l-12 -95 -52 -5 c-28 -3 -60 -8 -72 -12 -18 -6 -72 48 -358 349 l-336 355 17 61 c13 49 15 71 6 111 -7 35 -7 52 1 57 86 57 285 161 301 158 11 -3 42 -10 70 -17z m-1676 -578 c183 -197 278 -308 272 -314 -6 -6 -60 -6 -153 2 -216 18 -248 23 -248 35 0 25 -61 107 -102 136 -23 17 -61 35 -84 41 l-41 11 -12 186 c-7 103 -14 196 -16 207 -3 14 4 25 23 36 33 20 -3 54 361 -340z m-596 305 l62 -13 12 -144 c6 -79 12 -172 12 -205 1 -61 1 -62 -39 -88 -51 -33 -97 -114 -106 -184 -5 -41 -2 -68 15 -119 l21 -65 -132 -175 c-129 -171 -133 -174 -163 -168 -16 4 -46 9 -66 12 l-37 5 -75 231 -76 231 33 36 c50 55 70 116 62 192 -3 35 -7 76 -8 91 -3 26 19 50 192 212 164 153 198 181 213 173 10 -5 46 -15 80 -22z m2945 -91 c137 -58 163 -232 49 -332 -33 -29 -90 -53 -127 -53 -68 0 -151 57 -181 125 -74 162 93 329 259 260z m-846 -457 c178 -189 327 -348 331 -355 4 -7 1 -29 -8 -49 -8 -20 -15 -49 -15 -64 0 -28 -2 -29 -117 -55 -65 -15 -132 -30 -149 -35 -24 -6 -36 -3 -55 11 -32 25 -113 49 -163 49 -23 0 -68 -11 -100 -25 l-59 -24 -195 133 -196 134 -1 78 c-1 54 -7 90 -19 115 l-18 36 108 185 108 185 61 -4 c39 -3 74 0 100 10 22 8 45 15 51 16 6 0 157 -153 336 -341z m-2811 -197 c4 -3 39 -107 78 -230 l73 -224 -29 -29 -30 -29 -169 31 c-93 17 -179 34 -191 36 -17 5 -23 17 -32 67 -6 33 -22 78 -36 99 l-26 39 23 29 c13 15 64 73 113 128 l90 100 65 -5 c36 -3 68 -8 71 -12z m1359 -16 c80 -8 155 -15 167 -15 17 0 25 -9 32 -37 6 -21 20 -53 31 -71 l21 -34 -147 -181 c-98 -121 -152 -181 -163 -179 -9 2 -48 6 -88 9 l-72 5 -10 52 c-6 28 -22 111 -36 184 l-26 134 36 35 c19 19 44 52 55 74 12 23 27 39 38 39 9 0 82 -7 162 -15z m842 -328 c180 -123 188 -130 181 -155 -16 -56 -7 -140 21 -193 l26 -51 -39 -47 c-22 -25 -55 -61 -74 -79 l-34 -33 -58 16 c-91 27 -197 1 -259 -64 l-27 -28 -107 24 c-59 12 -149 32 -199 44 l-93 21 0 37 c0 58 -27 136 -65 186 l-35 45 147 180 146 181 53 -7 c59 -7 147 14 185 45 13 11 28 16 34 13 5 -3 94 -64 197 -135z m-923 -347 c78 -39 118 -115 108 -203 -14 -118 -133 -198 -248 -167 -56 15 -122 80 -139 137 -26 86 17 190 97 232 50 27 132 27 182 1z" transform="translate(0.000000,512.000000) scale(0.100000,-0.100000)"/></g></svg>