<?xml version="1.0" standalone="no"?>
<!DOCTYPE svg PUBLIC "-//W3C//DTD SVG 20010904//EN"
 "http://www.w3.org/TR/2001/REC-SVG-20010904/DTD/svg10.dtd">
<svg version="1.0" xmlns="http://www.w3.org/2000/svg"
 width="512.000000pt" height="512.000000pt" viewBox="0 0 512.000000 512.000000"
 preserveAspectRatio="xMidYMid meet">

<g transform="translate(0.000000,512.000000) scale(0.100000,-0.100000)"
fill="#000000" stroke="none">
<path d="M2432 5101 c-74 -25 -122 -67 -159 -140 -27 -51 -33 -74 -33 -125 0
-124 60 -222 164 -267 l56 -24 0 -536 0 -536 -59 -6 c-72 -8 -207 -50 -286
-89 -232 -117 -411 -340 -481 -604 -28 -104 -26 -331 3 -440 44 -162 114 -285
227 -403 88 -91 170 -150 279 -201 86 -40 226 -80 285 -80 l32 0 0 -537 0
-538 -56 -24 c-146 -63 -207 -242 -133 -389 16 -34 45 -73 62 -88 77 -65 184
-88 282 -59 83 24 166 107 190 190 43 145 -24 289 -162 352 l-53 25 2 531 3
532 60 7 c287 36 562 234 698 503 144 287 118 648 -65 918 -142 209 -368 353
-616 391 l-77 12 -3 531 -2 531 53 25 c138 63 205 207 162 352 -13 46 -28 70
-74 116 -87 86 -185 109 -299 70z m248 -1933 c25 -5 83 -29 130 -51 159 -77
290 -243 331 -417 17 -72 17 -211 0 -280 -42 -176 -172 -340 -331 -417 -110
-53 -173 -68 -290 -67 -173 1 -306 59 -435 188 -156 157 -215 356 -170 570 37
175 170 344 335 425 136 67 283 84 430 49z"/>
<path d="M2413 3046 c-83 -21 -160 -64 -227 -127 -102 -95 -156 -219 -156
-359 0 -321 308 -564 615 -485 168 43 291 155 355 320 19 49 24 79 24 165 0
86 -5 116 -24 165 -57 149 -166 257 -309 307 -72 25 -209 32 -278 14z m174
-291 c162 -48 196 -269 57 -365 -75 -50 -163 -47 -241 9 -107 78 -105 247 4
325 35 24 80 41 119 45 6 1 33 -6 61 -14z"/>
<path d="M950 4581 c-119 -37 -204 -153 -204 -281 0 -114 59 -206 162 -257
150 -74 339 -1 398 154 l17 43 208 0 209 0 0 -468 c0 -442 1 -470 18 -485 27
-25 78 -22 96 5 14 20 16 86 16 524 0 479 -1 503 -19 525 -19 24 -20 24 -275
27 l-255 3 -21 47 c-47 106 -148 172 -260 171 -36 0 -76 -4 -90 -8z"/>
<path d="M3965 4567 c-62 -31 -118 -87 -145 -149 l-21 -47 -255 -3 c-255 -3
-256 -3 -275 -27 -18 -22 -19 -46 -19 -525 0 -558 -1 -546 64 -546 68 0 66
-16 66 503 l0 467 209 0 208 0 17 -43 c59 -155 248 -228 398 -154 178 88 218
317 80 460 -57 60 -105 80 -197 84 -69 4 -87 1 -130 -20z"/>
<path d="M197 3836 c-89 -32 -156 -102 -183 -192 -32 -108 -8 -202 75 -285 84
-84 176 -107 288 -74 77 23 136 74 174 150 l32 65 208 0 209 0 0 -393 0 -394
-85 -77 -85 -77 85 -76 85 -76 0 -394 0 -393 -209 0 -208 0 -32 65 c-66 133
-205 192 -351 149 -78 -23 -162 -109 -185 -189 -41 -138 20 -279 148 -347 63
-34 193 -33 261 2 59 30 122 99 138 151 l11 39 238 0 c231 0 284 6 301 33 4 7
8 184 8 395 0 210 2 382 5 382 3 0 58 -40 123 -88 153 -116 435 -302 456 -302
3 0 -15 29 -40 64 -62 89 -121 219 -151 334 -22 84 -26 117 -26 252 0 135 4
168 26 252 30 115 89 245 151 334 25 35 43 64 40 64 -21 0 -275 -168 -441
-292 -72 -54 -134 -98 -137 -98 -3 0 -6 172 -6 383 0 210 -4 387 -8 394 -17
27 -70 33 -301 33 l-238 0 -12 42 c-18 57 -102 139 -165 161 -59 20 -147 21
-199 3z"/>
<path d="M4704 3802 c-69 -34 -126 -94 -147 -156 l-14 -41 -262 -5 c-218 -4
-263 -8 -271 -20 -6 -9 -10 -180 -10 -412 0 -219 -2 -398 -5 -398 -3 0 -70 49
-148 109 -136 104 -395 279 -465 315 l-34 17 42 -62 c59 -86 124 -228 152
-329 20 -74 23 -108 23 -260 0 -152 -3 -186 -23 -260 -28 -101 -93 -243 -152
-331 l-43 -63 49 28 c138 80 341 220 506 348 47 38 89 68 92 68 3 0 6 -132 6
-293 0 -272 1 -295 18 -310 16 -15 50 -17 270 -17 l251 0 24 -52 c33 -74 69
-113 131 -143 72 -35 147 -42 221 -20 83 24 166 107 190 190 41 139 -20 281
-148 346 -59 31 -159 37 -228 14 -68 -23 -149 -101 -171 -165 l-15 -45 -209 0
-209 0 -3 304 -2 304 52 49 53 48 -53 48 -52 49 2 409 3 409 206 3 206 2 32
-64 c37 -75 83 -118 159 -146 111 -42 216 -18 303 69 68 69 95 139 86 227 -16
152 -123 253 -277 261 -67 4 -81 1 -136 -25z"/>
<path d="M1757 1832 c-15 -17 -17 -65 -17 -485 l0 -467 -209 0 -208 0 -17 43
c-71 187 -315 243 -469 108 -146 -129 -110 -378 68 -474 58 -31 202 -31 260 0
55 29 110 89 135 145 l21 47 255 3 c255 3 256 3 275 27 18 22 19 46 19 525 0
438 -2 504 -16 524 -19 28 -74 30 -97 4z"/>
<path d="M3266 1828 c-14 -20 -16 -86 -16 -524 0 -479 1 -503 19 -525 19 -24
20 -24 275 -27 l255 -3 21 -47 c25 -56 80 -116 135 -145 33 -18 57 -22 130
-22 103 0 144 16 207 82 142 146 96 381 -91 467 -71 32 -170 29 -243 -7 -66
-32 -120 -90 -144 -154 l-17 -43 -208 0 -209 0 0 468 c0 442 -1 470 -18 485
-27 25 -78 22 -96 -5z"/>
</g>
</svg>
